<?xml version="1.0" encoding="utf-8"?>
<!-- Generator: Adobe Illustrator 27.5.0, SVG Export Plug-In . SVG Version: 6.00 Build 0)  -->
<svg version="1.1" id="Layer_1" xmlns="http://www.w3.org/2000/svg" xmlns:xlink="http://www.w3.org/1999/xlink" x="0px" y="0px"
	 viewBox="0 0 187.857 472.676" style="enable-background:new 0 0 187.857 472.676;" xml:space="preserve">
<g>
	<g>
		<ellipse style="fill:#2A3B44;" cx="31.287" cy="459.647" rx="19.859" ry="5.94"/>
		<path style="fill:#465B67;" d="M49.125,458.107c0,2.431-7.986,4.401-17.838,4.401c-9.851,0-17.838-1.97-17.838-4.401
			c0-2.43,7.986-4.401,17.838-4.401C41.139,453.707,49.125,455.677,49.125,458.107z"/>
		<g>
			<rect x="21.628" y="90.743" style="fill:#3A4E59;" width="18.069" height="4.266"/>
			<rect x="27.06" y="90.743" style="fill:#3A4E59;" width="6.538" height="275.411"/>
			<rect x="31.102" y="90.743" style="fill:#3A4E59;" width="2.496" height="275.411"/>
			<path style="fill:#576F7D;" d="M25.597,22.517c0,0-3.736-2.531-2.639-6.581c1.097-4.05,5.95-10.125,9.177-8.606
				c3.227,1.519,6.5,7.425,5.623,12.825C36.88,25.554,25.597,22.517,25.597,22.517z"/>
			<path style="opacity:0.6;fill:#344751;" d="M32.135,7.329c-3.227-1.519-8.08,4.556-9.177,8.606
				c-1.097,4.05,2.639,6.581,2.639,6.581s11.284,3.038,12.16-2.363S35.362,8.847,32.135,7.329z M30.109,17.215
				c-1.758,0.792-4.763,1.029-5.514-1.255c-0.402-1.223,0.284-2.514,1.021-3.452c0.288-0.366,0.621-0.716,0.974-1.047
				c0.265-0.589,0.623-1.132,1.12-1.542c0.691-0.57,1.564-0.796,2.443-0.615c1.538,0.316,2.682,1.759,2.865,3.279
				C33.256,14.544,31.841,16.435,30.109,17.215z"/>
			<polygon style="fill:#344751;" points="4.843,34.186 21.043,89.758 40.788,89.758 54.457,34.186 			"/>
			<polygon style="fill:#FDC469;" points="6.53,34.186 23.626,89.758 38.088,89.758 51.925,34.186 			"/>
			<path style="fill:#FDC469;" d="M26.073,85.751c-1.009-4.737-1.878-9.501-2.863-14.243c-1.02-4.91-2.133-9.807-3.273-14.691
				c-1.763-7.553-3.665-15.075-5.411-22.632H6.53l17.096,55.572h3.342C26.655,88.425,26.358,87.089,26.073,85.751z"/>
			<path style="fill:#FDC469;" d="M43.62,34.186c-0.865,3.27-1.576,6.582-2.227,9.901c-0.894,4.562-1.68,9.145-2.614,13.699
				c-0.954,4.653-1.992,9.291-3.143,13.899c-0.581,2.329-1.207,4.649-1.777,6.98c-0.545,2.228-0.945,4.488-1.316,6.75
				c-0.237,1.445-0.465,2.895-0.707,4.341h6.251l13.838-55.572H43.62z"/>
			<polygon style="fill:#344751;" points="11.171,32.642 3.83,30.617 21.296,19.479 41.041,19.479 56.988,32.642 			"/>
			<path style="fill:#344751;" d="M26.706,19.479h-3.973c-0.631,0.672-1.251,1.355-1.888,2.021
				c-3.489,3.643-7.054,7.218-10.482,10.918l0.809,0.223h8.649C22.118,28.256,24.429,23.876,26.706,19.479z"/>
			<path style="opacity:0.6;fill:#344751;" d="M32.991,32.642h23.997L41.041,19.479h-9.536
				C32.045,23.861,32.449,28.26,32.991,32.642z"/>
			
				<rect x="19.7" y="32.093" transform="matrix(0.9812 -0.1932 0.1932 0.9812 -11.4292 5.179)" style="fill:#576F7D;" width="2.289" height="58.213"/>
			
				<rect x="9.521" y="60.055" transform="matrix(0.1934 -0.9811 0.9811 0.1934 -28.8869 87.263)" style="fill:#576F7D;" width="58.213" height="2.289"/>
			<rect x="19.018" y="88.078" style="fill:#576F7D;" width="22.622" height="5.33"/>
			<rect x="19.018" y="88.078" style="fill:#576F7D;" width="22.622" height="5.33"/>
			<path style="fill:#576F7D;" d="M30.915,461.447v-97.456c0,0-2.278-4.809-5.569-3.544c-3.291,1.266-7.594,5.316-7.341,12.404
				c0.253,7.088,0,76.699,0,76.699s-0.253,7.594,4.303,9.113C26.865,460.181,30.915,461.447,30.915,461.447z"/>
			<path style="fill:#576F7D;" d="M18.102,412.951c0.351-5.03,0.621-10.064,0.802-15.107c0.223-6.235,0.483-12.459,0.91-18.684
				c0.28-4.084,0.593-8.227,1.7-12.186c0.6-2.148,1.517-4.462,3.028-6.164c-3.144,1.575-6.769,5.518-6.536,12.041
				C18.13,376.336,18.132,394.94,18.102,412.951z"/>
			<path style="fill:#3A4E59;" d="M30.915,461.447v-97.456c0,0,2.278-4.809,5.569-3.544c3.291,1.266,7.594,5.316,7.341,12.404
				c-0.253,7.088,0,76.699,0,76.699s0.253,7.594-4.303,9.113S30.915,461.447,30.915,461.447z"/>
			<rect x="2.818" y="30.617" style="fill:#5E7C9E;" width="55.183" height="2.025"/>
			<polygon style="opacity:0.6;fill:#344751;" points="7.787,28.094 3.83,30.617 11.171,32.642 56.988,32.642 51.478,28.094 			"/>
			<rect x="2.818" y="30.617" style="fill:#576F7D;" width="55.183" height="7.088"/>
			<rect x="2.818" y="30.617" style="fill:#344751;" width="55.183" height="1.804"/>
		</g>
	</g>
	<g>
		<g>
			<path style="fill:#274D3F;" d="M184.729,80.478c-1.49-9.05-8.19-17.033-17.517-18.289c-7.743-1.042-15.189,1.752-21.245,6.383
				H96.828c-0.733-0.025-1.467-0.038-2.199-0.043c-0.596-0.003-1.196,0.018-1.798,0.043H67.895v57.685
				c-1.227-0.159-2.964,1.178-2.481,2.347c0.407,0.983,1.485,1.355,2.481,1.637v15.017c-0.11,1.096-0.112,2.205,0,3.295v18.885
				h2.266v-12.646c0.451,0.625,0.968,1.208,1.561,1.735c3.352,2.979,8.377,3.357,12.463,1.889c4.665-1.678,7.898-6.11,7.968-11.077
				c0.024-1.726-0.152-3.508-0.982-5.049c-0.904-1.68-2.738-2.681-4.611-2.796c-1.903-0.117-3.922,0.594-5.456,1.697
				c-1.497,1.076-3.119,2.909-2.977,4.88c0.18,2.5,3.391,1.171,4.007-0.399c0.077-0.197,0.206-0.48,0.276-0.611
				c-0.05,0.094,0.19-0.293,0.188-0.324c0.047-0.052,0.092-0.105,0.14-0.155c0.024-0.025,0.113-0.104,0.179-0.164
				c0.048-0.035,0.1-0.072,0.109-0.076c0.666-0.347-0.275,0.11,0.116-0.082c0.08-0.039,0.427-0.178,0.488-0.213
				c0.207-0.058,0.42-0.107,0.631-0.137c0.148-0.002,0.294-0.001,0.443,0.005c0.003,0,0.075,0.008,0.136,0.014
				c0.089,0.024,0.378,0.084,0.373,0.083c1.964,0.564,2.126,3.029,2.029,4.89c-0.023,0.452-0.076,0.901-0.156,1.346
				c-0.025,0.104-0.049,0.208-0.08,0.311c-0.07,0.234-0.14,0.466-0.224,0.696c-0.063,0.172-0.136,0.338-0.207,0.507
				c-0.037,0.072-0.073,0.144-0.115,0.214c-0.102,0.171-0.202,0.342-0.312,0.508c-0.046,0.069-0.1,0.136-0.141,0.207
				c-0.231,0.237-0.46,0.49-0.682,0.734c-0.007,0.008-0.007,0.009-0.013,0.015c-0.005,0.004-0.006,0.004-0.011,0.008
				c-0.175,0.131-0.346,0.263-0.527,0.386c-0.156,0.106-0.331,0.193-0.482,0.305c0.053-0.04,0.09-0.066,0.127-0.094
				c-0.055,0.036-0.113,0.072-0.16,0.095c-0.332,0.163-0.675,0.29-1.02,0.421c-0.055,0.018-0.122,0.037-0.19,0.055
				c-0.185,0.049-0.372,0.092-0.56,0.131c-0.188,0.038-0.377,0.071-0.567,0.099c-0.069,0.01-0.139,0.018-0.209,0.029
				c0,0,0,0-0.001,0c-0.386,0.017-0.769,0.033-1.156,0.019c-0.193-0.007-0.386-0.019-0.577-0.037
				c-0.082-0.007-0.323-0.048-0.42-0.063c-0.705-0.148-1.388-0.327-2.06-0.598c-0.058-0.023-0.115-0.05-0.173-0.075
				c-0.01-0.006-0.006-0.004-0.022-0.012c-0.171-0.091-0.342-0.179-0.509-0.277c-0.359-0.21-0.704-0.444-1.032-0.7
				c-0.154-0.121-0.303-0.247-0.45-0.376c-0.053-0.046-0.103-0.095-0.154-0.143c-0.008-0.009-0.006-0.007-0.019-0.021
				c-0.29-0.32-0.566-0.645-0.814-0.999c-0.239-0.34-0.447-0.697-0.64-1.064c-0.004-0.007-0.026-0.052-0.046-0.093
				c-0.029-0.067-0.071-0.16-0.08-0.184c-0.09-0.236-0.18-0.471-0.257-0.712c-0.749-2.358-0.863-5.094-0.184-7.478
				c0.431-1.514,1.135-2.883,2.035-4.171c0.04-0.058,0.305-0.419,0.355-0.495c0.189-0.24,0.387-0.473,0.589-0.7
				c0.506-0.569,1.046-1.11,1.615-1.616c0.731-0.65,2.171-1.671,3.236-2.263c0.537-0.299,1.21-0.505,1.791-0.782
				c0.179-0.085,0.349-0.186,0.521-0.282c1.702-0.186,3.383-0.482,5.004-0.911c8.586-2.273,16.805-6.692,23.716-12.231
				c7.341-5.883,13.122-13.121,18.259-20.955c4.814-7.341,9.071-15.35,15.105-21.793c5.269-5.627,13.343-9.697,21.281-7.317
				c6.935,2.08,11.385,9.341,11.941,16.307c0.53,6.643-2.756,13.935-8.198,17.277c-5.432,3.336-13.257,0.89-17.75-3.422
				c-2.297-2.204-3.796-5.129-3.468-8.364c0.287-2.833,2.012-5.175,4.36-6.622c1.981-1.221,4.75-1.827,6.902-0.511
				c2.27,1.388,4.186,5.302,2.21,7.686c-0.631,0.761-1.207,0.778-1.058-0.305c0.307-2.22-3.455-1.24-3.808,0.38
				c-0.404,1.856-0.044,3.687,2.059,4.15c2.065,0.455,4.324-0.678,5.748-2.108c3.002-3.015,2.859-7.966,0.268-11.181
				c-5.149-6.387-14.516-2.529-18.676,2.944c-2.328,3.061-3.361,7.206-2.499,10.98c0.876,3.831,3.607,6.986,6.814,9.125
				c7.336,4.894,16.915,5.056,23.874-0.643C182.314,98.535,186.204,89.445,184.729,80.478z M70.161,70.838h22.027
				c0.953,0.237,1.918,0.434,2.87,0.655c2.316,0.538,4.769,1.197,6.765,2.531c3.323,2.223,5.563,5.939,6.644,9.731
				c1.994,6.993,0.437,15.883-5.361,20.721c-6.71,5.6-16.71,6.55-23.986,1.587c-3.566-2.433-5.767-5.727-5.373-10.16
				c0.326-3.662,2.217-7.619,5.328-9.711c0.691-0.465,0.982-0.606,1.908-1.011c0.793-0.346,1.548-0.616,2.378-0.826
				c1.596-0.403,3.345-0.662,4.966-0.245c1.572,0.405,2.896,1.516,3.174,3.188c0.126,0.759-0.1,1.258-0.294,1.902
				c0.016-0.053-0.194,0.148-0.086,0.123c-0.256,0.109-0.476,0.106-0.867,0.09c-1.372-0.056-2.849,1.006-3.28,2.299
				c-0.412,1.237,0.355,2.37,1.674,2.389c5.465,0.077,9.605-5.494,7.126-10.586c-2.014-4.138-7.104-4.553-11.12-3.808
				c-4.782,0.886-9.099,3.322-12.069,7.191c-0.93,1.212-1.755,2.586-2.425,4.049V70.838z M70.161,138.337v-7.49
				c1.033,0.262,2.073,0.502,3.114,0.669c0.967,0.155,1.952,0.261,2.944,0.34c-0.002,0.001-0.003,0.002-0.005,0.003
				C73.721,133.598,71.664,135.748,70.161,138.337z M122.789,99.681c-5.66,8.279-12.578,15.382-21.237,20.529
				c-4.062,2.414-8.484,4.31-12.998,5.696c-5.189,1.594-10.418,1.325-15.764,1.082c-0.875-0.04-1.752-0.083-2.625-0.161
				c-0.001,0-0.003,0-0.004-0.001v-21.849c2.277,3.794,6.523,6.494,10.577,7.853c5.51,1.846,11.548,1.276,16.916-0.76
				c5.069-1.923,9.666-5.233,12.585-9.848c2.333-3.69,3.636-8.079,3.808-12.451c1.639,1.776,3.606,3.225,5.913,4.024
				c2.082,0.722,4.373,0.793,6.503,0.241C125.265,95.939,124.054,97.831,122.789,99.681z M131.805,84.898
				c-2.292,3.458-5.032,6.089-9.221,4.682c-2.139-0.719-4.109-2.206-5.59-3.886c-1.437-1.63-2.859-3.301-4.24-4.985
				c-0.959-2.855-2.443-5.522-4.541-7.682c-0.81-0.834-1.727-1.57-2.718-2.188h16.835c-1.584,0.954-2.863,2.384-3.528,4.331
				c-0.722,2.117-0.679,4.818,0.698,6.678c1.75,2.364,4.843,2.306,7.185,0.915c1.622-0.963,1.278-3.305-0.784-3.007
				c-0.7,0.101-1.294,0.204-1.624,0.106c-0.39-0.117-0.709-0.372-1.041-0.863c-0.564-0.834-0.662-2.309-0.433-3.23
				c0.064-0.256,0.268-0.82,0.298-0.881c-0.058,0.12,0.302-0.45,0.287-0.473c0.103-0.124,0.212-0.244,0.329-0.354
				c0.025-0.018,0.031-0.022,0.067-0.048c0.058-0.041,0.093-0.067,0.125-0.091c0.021-0.009,0.037-0.016,0.073-0.034
				c0.175-0.089,0.549-0.24,0.628-0.264c1.661-0.51,3.599-0.124,5.139,0.602c1.67,0.787,3.216,2.16,3.744,3.975
				C134.19,80.596,133.11,82.928,131.805,84.898z M140.052,74.145c-0.666,0.771-1.3,1.567-1.93,2.366
				c-0.027-0.102-0.036-0.206-0.067-0.308c-0.745-2.417-2.531-4.196-4.693-5.365h9.911
				C142.134,71.885,141.052,72.988,140.052,74.145z"/>
			<path d="M84.422,154.044C84.587,153.936,84.711,153.832,84.422,154.044L84.422,154.044z"/>
		</g>
		<g>
			<rect x="153.285" y="173.696" style="fill:#3A4E59;" width="15.095" height="3.564"/>
			<path style="fill:#576F7D;" d="M156.601,116.7c0,0-3.121-2.115-2.204-5.498c0.916-3.383,4.97-8.459,7.666-7.19
				s5.43,6.203,4.697,10.714C166.027,119.238,156.601,116.7,156.601,116.7z"/>
			<path style="opacity:0.6;fill:#344751;" d="M162.063,104.012c-2.696-1.269-6.75,3.806-7.666,7.19
				c-0.916,3.383,2.204,5.498,2.204,5.498s9.426,2.538,10.159-1.974C167.492,110.215,164.758,105.281,162.063,104.012z
				 M160.37,112.271c-1.469,0.661-3.979,0.859-4.607-1.048c-0.336-1.022,0.238-2.1,0.853-2.884c0.24-0.306,0.519-0.599,0.814-0.875
				c0.222-0.493,0.52-0.945,0.936-1.288c0.577-0.476,1.306-0.665,2.041-0.514c1.285,0.264,2.24,1.47,2.394,2.739
				C162.999,110.04,161.818,111.62,160.37,112.271z"/>
			<polygon style="fill:#344751;" points="139.263,126.449 152.797,172.874 169.291,172.874 180.71,126.449 			"/>
			<polygon style="fill:#FDC469;" points="140.673,126.449 154.954,172.874 167.035,172.874 178.596,126.449 			"/>
			<path style="fill:#FDC469;" d="M156.999,169.526c-0.843-3.957-1.569-7.938-2.392-11.898c-0.852-4.102-1.782-8.193-2.734-12.273
				c-1.473-6.31-3.062-12.593-4.521-18.906h-6.679l14.282,46.425h2.792C157.484,171.76,157.237,170.644,156.999,169.526z"/>
			<path style="fill:#FDC469;" d="M171.657,126.449c-0.723,2.732-1.317,5.499-1.86,8.271c-0.747,3.811-1.403,7.64-2.184,11.445
				c-0.797,3.887-1.664,7.762-2.625,11.612c-0.486,1.946-1.008,3.884-1.485,5.831c-0.455,1.861-0.789,3.749-1.099,5.639
				c-0.198,1.208-0.388,2.418-0.591,3.627h5.222l11.56-46.425H171.657z"/>
			<polygon style="fill:#344751;" points="144.549,125.159 138.417,123.467 153.008,114.162 169.503,114.162 182.825,125.159 			"/>
			<path style="fill:#344751;" d="M157.527,114.162h-3.319c-0.527,0.561-1.045,1.132-1.577,1.689
				c-2.915,3.043-5.893,6.03-8.757,9.121l0.675,0.186h7.225C153.694,121.494,155.625,117.836,157.527,114.162z"/>
			<path style="opacity:0.6;fill:#344751;" d="M162.778,125.159h20.047l-13.322-10.996h-7.967
				C161.988,117.823,162.325,121.498,162.778,125.159z"/>
			
				<rect x="151.674" y="124.7" transform="matrix(0.9812 -0.1932 0.1932 0.9812 -25.9104 32.2899)" style="fill:#576F7D;" width="1.912" height="48.631"/>
			
				<rect x="143.171" y="148.06" transform="matrix(0.1934 -0.9811 0.9811 0.1934 -11.1026 284.5277)" style="fill:#576F7D;" width="48.631" height="1.912"/>
			<rect x="151.105" y="171.47" style="fill:#576F7D;" width="18.898" height="4.452"/>
			<rect x="151.105" y="171.47" style="fill:#576F7D;" width="18.898" height="4.452"/>
			<rect x="137.571" y="123.467" style="fill:#5E7C9E;" width="46.1" height="1.692"/>
			<polygon style="opacity:0.6;fill:#344751;" points="141.722,121.359 138.417,123.467 144.549,125.159 182.825,125.159 
				178.222,121.359 			"/>
			<rect x="137.571" y="123.467" style="fill:#576F7D;" width="46.1" height="5.921"/>
			<rect x="137.571" y="123.467" style="fill:#344751;" width="46.1" height="1.507"/>
		</g>
	</g>
	<g>
		<g>
			<path style="fill:#274D3F;" d="M145.733,242.628c-1.003-6.094-5.515-11.47-11.796-12.316c-5.214-0.702-10.228,1.18-14.307,4.298
				h-33.09c-0.494-0.017-0.988-0.026-1.481-0.029c-0.401-0.002-0.805,0.012-1.211,0.029H67.057v38.845
				c-0.826-0.107-1.996,0.793-1.671,1.581c0.274,0.662,1,0.913,1.671,1.102v10.112c-0.074,0.738-0.075,1.485,0,2.219v12.717h1.526
				v-8.516c0.304,0.421,0.652,0.814,1.051,1.168c2.257,2.006,5.641,2.261,8.392,1.272c3.142-1.13,5.319-4.115,5.366-7.459
				c0.016-1.162-0.102-2.363-0.661-3.4c-0.609-1.131-1.844-1.805-3.105-1.883c-1.282-0.079-2.641,0.4-3.674,1.143
				c-1.008,0.725-2.1,1.959-2.005,3.286c0.121,1.683,2.284,0.789,2.698-0.269c0.052-0.133,0.139-0.323,0.186-0.411
				c-0.034,0.063,0.128-0.197,0.126-0.218c0.032-0.035,0.062-0.071,0.094-0.104c0.016-0.017,0.076-0.07,0.121-0.11
				c0.033-0.023,0.067-0.048,0.073-0.051c0.449-0.234-0.185,0.074,0.078-0.056c0.054-0.027,0.288-0.12,0.329-0.144
				c0.14-0.039,0.283-0.072,0.425-0.092c0.1-0.002,0.198-0.001,0.298,0.003c0.002,0,0.051,0.005,0.092,0.009
				c0.06,0.016,0.255,0.057,0.252,0.056c1.323,0.38,1.431,2.04,1.367,3.293c-0.016,0.304-0.051,0.607-0.105,0.907
				c-0.017,0.07-0.033,0.14-0.054,0.209c-0.047,0.157-0.094,0.314-0.15,0.469c-0.042,0.115-0.091,0.228-0.139,0.341
				c-0.025,0.048-0.049,0.097-0.077,0.144c-0.069,0.115-0.136,0.23-0.21,0.342c-0.031,0.046-0.067,0.091-0.095,0.139
				c-0.156,0.16-0.31,0.33-0.459,0.494c-0.005,0.005-0.005,0.006-0.009,0.01c-0.003,0.003-0.004,0.003-0.008,0.005
				c-0.117,0.088-0.233,0.177-0.355,0.26c-0.105,0.071-0.223,0.13-0.325,0.206c0.036-0.027,0.06-0.044,0.086-0.063
				c-0.037,0.024-0.076,0.048-0.108,0.064c-0.224,0.109-0.455,0.196-0.687,0.284c-0.037,0.012-0.082,0.025-0.128,0.037
				c-0.125,0.033-0.25,0.062-0.377,0.088c-0.127,0.026-0.254,0.048-0.382,0.067c-0.047,0.007-0.094,0.012-0.14,0.019c0,0,0,0,0,0
				c-0.26,0.011-0.518,0.022-0.778,0.013c-0.13-0.005-0.26-0.013-0.389-0.025c-0.055-0.005-0.218-0.033-0.283-0.042
				c-0.475-0.099-0.935-0.22-1.387-0.402c-0.039-0.016-0.077-0.033-0.116-0.05c-0.007-0.004-0.004-0.003-0.015-0.008
				c-0.115-0.061-0.23-0.121-0.343-0.186c-0.242-0.141-0.474-0.299-0.695-0.471c-0.104-0.081-0.204-0.166-0.303-0.253
				c-0.035-0.031-0.07-0.064-0.104-0.096c-0.006-0.006-0.004-0.005-0.013-0.014c-0.195-0.215-0.381-0.434-0.549-0.672
				c-0.161-0.229-0.301-0.469-0.431-0.716c-0.003-0.005-0.017-0.035-0.031-0.062c-0.02-0.045-0.048-0.108-0.054-0.124
				c-0.061-0.159-0.121-0.317-0.173-0.479c-0.504-1.588-0.581-3.431-0.124-5.036c0.291-1.02,0.764-1.941,1.371-2.809
				c0.027-0.039,0.205-0.282,0.239-0.333c0.127-0.161,0.261-0.318,0.397-0.472c0.341-0.383,0.704-0.747,1.088-1.088
				c0.492-0.438,1.462-1.125,2.179-1.524c0.362-0.201,0.815-0.34,1.206-0.527c0.12-0.057,0.235-0.125,0.35-0.19
				c1.146-0.125,2.278-0.325,3.37-0.614c5.782-1.53,11.316-4.506,15.97-8.236c4.943-3.962,8.836-8.835,12.296-14.111
				c3.242-4.943,6.108-10.337,10.172-14.676c3.548-3.789,8.985-6.53,14.331-4.927c4.67,1.4,7.667,6.29,8.041,10.981
				c0.357,4.473-1.856,9.384-5.52,11.634c-3.658,2.247-8.927,0.599-11.953-2.304c-1.547-1.484-2.556-3.454-2.335-5.633
				c0.193-1.908,1.355-3.485,2.936-4.459c1.334-0.822,3.199-1.23,4.647-0.344c1.529,0.935,2.819,3.57,1.489,5.176
				c-0.425,0.513-0.813,0.524-0.712-0.205c0.206-1.495-2.327-0.835-2.564,0.256c-0.272,1.25-0.03,2.482,1.387,2.794
				c1.391,0.306,2.912-0.456,3.871-1.419c2.022-2.031,1.925-5.364,0.18-7.529c-3.467-4.301-9.775-1.703-12.576,1.982
				c-1.567,2.061-2.263,4.853-1.682,7.394c0.59,2.58,2.429,4.704,4.588,6.145c4.94,3.296,11.391,3.404,16.076-0.433
				C144.107,254.787,146.727,248.666,145.733,242.628z M68.583,236.137h14.833c0.641,0.16,1.292,0.292,1.933,0.441
				c1.56,0.363,3.211,0.806,4.555,1.705c2.238,1.497,3.746,3.999,4.474,6.553c1.342,4.709,0.294,10.696-3.61,13.954
				c-4.519,3.771-11.253,4.411-16.152,1.068c-2.402-1.639-3.883-3.856-3.618-6.842c0.219-2.466,1.493-5.131,3.588-6.54
				c0.465-0.313,0.661-0.408,1.285-0.681c0.534-0.233,1.043-0.415,1.601-0.556c1.075-0.271,2.252-0.446,3.344-0.165
				c1.059,0.273,1.95,1.021,2.137,2.147c0.085,0.511-0.067,0.847-0.198,1.281c0.011-0.036-0.131,0.1-0.058,0.083
				c-0.173,0.073-0.32,0.072-0.584,0.061c-0.924-0.038-1.919,0.678-2.209,1.548c-0.278,0.833,0.239,1.596,1.127,1.609
				c3.68,0.052,6.468-3.7,4.799-7.129c-1.356-2.786-4.784-3.066-7.488-2.564c-3.22,0.596-6.127,2.237-8.127,4.842
				c-0.627,0.816-1.182,1.742-1.633,2.727V236.137z M68.583,281.59v-5.044c0.696,0.176,1.396,0.338,2.097,0.451
				c0.651,0.105,1.315,0.176,1.982,0.229c-0.001,0.001-0.002,0.002-0.003,0.002C70.981,278.399,69.596,279.847,68.583,281.59z
				 M104.023,255.559c-3.812,5.575-8.47,10.358-14.301,13.824c-2.735,1.626-5.713,2.902-8.753,3.836
				c-3.494,1.073-7.015,0.892-10.615,0.729c-0.589-0.027-1.18-0.056-1.768-0.108c-0.001,0-0.002,0-0.003,0v-14.713
				c1.533,2.555,4.393,4.374,7.122,5.288c3.71,1.243,7.777,0.859,11.391-0.512c3.413-1.295,6.509-3.524,8.475-6.632
				c1.571-2.485,2.449-5.44,2.564-8.385c1.104,1.196,2.429,2.171,3.982,2.71c1.402,0.486,2.945,0.534,4.379,0.162
				C105.69,253.04,104.875,254.314,104.023,255.559z M110.094,245.604c-1.543,2.329-3.389,4.1-6.209,3.153
				c-1.441-0.484-2.767-1.485-3.765-2.617c-0.968-1.098-1.925-2.223-2.855-3.357c-0.646-1.923-1.645-3.719-3.058-5.173
				c-0.546-0.562-1.163-1.058-1.83-1.473h11.337c-1.067,0.643-1.928,1.605-2.376,2.917c-0.486,1.426-0.457,3.245,0.47,4.497
				c1.178,1.592,3.262,1.553,4.838,0.617c1.092-0.648,0.86-2.226-0.528-2.025c-0.472,0.068-0.871,0.137-1.093,0.071
				c-0.263-0.078-0.477-0.25-0.701-0.581c-0.38-0.562-0.446-1.555-0.292-2.175c0.043-0.173,0.181-0.552,0.201-0.593
				c-0.039,0.081,0.203-0.303,0.194-0.319c0.069-0.083,0.143-0.164,0.222-0.238c0.017-0.012,0.021-0.015,0.046-0.032
				c0.039-0.027,0.063-0.045,0.084-0.061c0.014-0.006,0.025-0.011,0.049-0.023c0.118-0.06,0.37-0.161,0.423-0.178
				c1.118-0.344,2.424-0.083,3.461,0.406c1.124,0.53,2.166,1.455,2.521,2.677C111.701,242.708,110.973,244.278,110.094,245.604z
				 M115.648,238.364c-0.449,0.52-0.875,1.055-1.3,1.593c-0.018-0.069-0.024-0.139-0.045-0.207c-0.501-1.627-1.705-2.826-3.16-3.613
				h6.674C117.05,236.842,116.322,237.584,115.648,238.364z"/>
			<path style="fill:#274D3F;" d="M78.187,292.167C78.298,292.095,78.382,292.025,78.187,292.167L78.187,292.167z"/>
		</g>
		<g>
			<rect x="123.501" y="332.624" style="fill:#3A4E59;" width="15.095" height="3.564"/>
			<path style="fill:#576F7D;" d="M126.817,275.628c0,0-3.121-2.115-2.204-5.498c0.916-3.384,4.97-8.459,7.666-7.19
				c2.696,1.269,5.43,6.203,4.697,10.714C136.244,278.166,126.817,275.628,126.817,275.628z"/>
			<path style="opacity:0.6;fill:#344751;" d="M132.279,262.94c-2.696-1.269-6.75,3.806-7.666,7.19
				c-0.916,3.384,2.204,5.498,2.204,5.498s9.426,2.538,10.159-1.974C137.709,269.143,134.975,264.209,132.279,262.94z
				 M130.587,271.199c-1.469,0.661-3.979,0.859-4.607-1.048c-0.336-1.022,0.238-2.1,0.853-2.884c0.24-0.306,0.519-0.599,0.814-0.875
				c0.222-0.492,0.52-0.945,0.936-1.288c0.577-0.477,1.306-0.665,2.041-0.514c1.285,0.264,2.24,1.47,2.394,2.739
				C133.216,268.968,132.034,270.548,130.587,271.199z"/>
			<polygon style="fill:#344751;" points="109.479,285.377 123.013,331.802 139.508,331.802 150.927,285.377 			"/>
			<polygon style="fill:#FDC469;" points="110.889,285.377 125.171,331.802 137.252,331.802 148.812,285.377 			"/>
			<path style="fill:#FDC469;" d="M127.215,328.454c-0.843-3.957-1.569-7.938-2.392-11.898c-0.852-4.102-1.782-8.193-2.734-12.273
				c-1.473-6.31-3.062-12.593-4.521-18.906h-6.679l14.282,46.425h2.792C127.701,330.689,127.453,329.572,127.215,328.454z"/>
			<path style="fill:#FDC469;" d="M141.874,285.377c-0.723,2.732-1.317,5.499-1.86,8.271c-0.747,3.811-1.403,7.64-2.184,11.445
				c-0.797,3.887-1.665,7.762-2.625,11.612c-0.486,1.946-1.008,3.884-1.485,5.831c-0.455,1.861-0.789,3.749-1.099,5.639
				c-0.198,1.207-0.388,2.418-0.591,3.627h5.222l11.56-46.425H141.874z"/>
			<polygon style="fill:#344751;" points="114.766,284.087 108.633,282.395 123.225,273.091 139.719,273.091 153.042,284.087 			"/>
			<path style="fill:#344751;" d="M127.744,273.091h-3.319c-0.527,0.561-1.045,1.132-1.577,1.689
				c-2.914,3.043-5.893,6.03-8.757,9.121l0.675,0.186h7.225C123.911,280.422,125.842,276.764,127.744,273.091z"/>
			<path style="opacity:0.6;fill:#344751;" d="M132.995,284.087h20.047l-13.322-10.996h-7.966
				C132.204,276.751,132.542,280.427,132.995,284.087z"/>
			
				<rect x="121.891" y="283.629" transform="matrix(0.9812 -0.1932 0.1932 0.9812 -57.1708 29.5297)" style="fill:#576F7D;" width="1.912" height="48.631"/>
			
				<rect x="113.387" y="306.988" transform="matrix(0.1934 -0.9811 0.9811 0.1934 -191.0559 383.5043)" style="fill:#576F7D;" width="48.631" height="1.912"/>
			<rect x="121.322" y="330.398" style="fill:#576F7D;" width="18.898" height="4.452"/>
			<rect x="121.322" y="330.398" style="fill:#576F7D;" width="18.898" height="4.452"/>
			<rect x="107.788" y="282.395" style="fill:#5E7C9E;" width="46.1" height="1.692"/>
			<polygon style="opacity:0.6;fill:#344751;" points="111.939,280.287 108.633,282.395 114.766,284.087 153.042,284.087 
				148.439,280.287 			"/>
			<rect x="107.788" y="282.395" style="fill:#576F7D;" width="46.1" height="5.921"/>
			<rect x="107.788" y="282.395" style="fill:#344751;" width="46.1" height="1.507"/>
		</g>
	</g>
	<g>
		<g>
			<polygon style="fill:#274D3F;" points="93.56,371.879 93.564,371.881 93.564,371.881 93.56,371.879 			"/>
			<path style="fill:#274D3F;" d="M93.551,371.876c0.007,0.003,0.003,0.001,0.009,0.003c0.002-0.002,0.005-0.006,0.007-0.008
				C93.507,371.858,93.462,371.844,93.551,371.876z"/>
			<path style="fill:#274D3F;" d="M93.567,371.871c0.002,0.001,0.004,0.001,0.006,0.001c0.005-0.004,0.01-0.011,0.015-0.014
				C93.612,371.824,93.622,371.809,93.567,371.871z"/>
			<g>
				<path style="fill:#274D3F;" d="M168.322,369.113l0.002-0.002c0.014-0.036,0.059-0.083,0.115-0.132
					C168.411,368.984,168.346,369.031,168.322,369.113z"/>
				<path style="fill:#274D3F;" d="M163.615,370.831c0.002,0,0.004,0.001,0.006,0.001c0.038,0.003,0.075,0.007,0.113,0.011
					C163.778,370.844,163.777,370.841,163.615,370.831z"/>
				<path style="fill:#274D3F;" d="M167.11,369.968c0.001-0.001,0.002-0.001,0.003-0.002c-0.028,0.001-0.056,0.01-0.085,0.025
					C167.062,369.975,167.088,369.97,167.11,369.968z"/>
				<path style="fill:#274D3F;" d="M170.007,367.049c0.004-0.006,0.007-0.013,0.011-0.019c0.017-0.038,0.034-0.075,0.049-0.113
					c0.001-0.002,0.001-0.004,0.002-0.007C170.07,366.903,170.052,366.938,170.007,367.049z"/>
				<path style="fill:#274D3F;" d="M160.183,368.511C160.186,368.452,160.184,368.466,160.183,368.511L160.183,368.511z"/>
				<g>
					<path style="fill:#274D3F;" d="M129.002,368.479c-0.004,0-0.021,0.002-0.031,0.003c0.004,0.006,0.009,0.011,0.013,0.017
						c0.021-0.007,0.03-0.012,0.037-0.02C129.015,368.479,129.008,368.479,129.002,368.479z"/>
					<g>
						<path style="fill:#274D3F;" d="M102.78,376.408c0.024,0.005,0.046,0.008,0.062,0.011c-0.02-0.004-0.04-0.008-0.061-0.011
							C102.781,376.408,102.781,376.408,102.78,376.408z"/>
						<path style="fill:#274D3F;" d="M175.754,360.404c-6.887-0.326-13.828-0.084-20.722-0.061
							c-6.923,0.023-13.845,0.04-20.768,0.072c-10.34,0.049-20.68,0.09-31.021,0.149c-3.815-0.003-7.631-0.001-11.446,0.011
							c-3.802,0.011-7.604,0.023-11.406,0.035c-3.894,0.012-7.83-0.158-11.692,0.396c-0.072-0.092-0.139-0.186-0.222-0.272
							c-0.396-0.411-1.031-0.139-1.306,0.286c-0.981,1.518-1.221,3.251-1.489,5.015c-0.261,1.718-0.311,3.471-0.311,5.209v9.904
							c0,6.699-0.241,13.486,0.475,20.151c0.104,0.963,1.438,1.028,2.104,0.808c0.921-0.305,1.75-1.083,1.853-2.09
							c0.447-4.369,0.494-8.79,0.475-13.204c0.013-0.028,0.025-0.058,0.038-0.086c1.015-2.254,2.347-4.502,3.912-6.42
							c0.779-0.954,1.276-1.386,2.198-2.017c1.259-0.861,2.649-1.567,4.135-1.939c2.917-0.73,5.749,0.1,7.873,2.229
							c1.347,1.35,2.239,3.138,2.192,5.071c-0.041,1.673-0.758,3.348-1.631,4.471c-0.564,0.726-1.138,1.255-1.688,1.658
							c-0.719,0.527-1.215,0.8-1.955,1.049c-1.254,0.423-2.787,0.417-4.128-0.42c-2.16-1.349-3.306-4.036-2.328-6.479
							c0.43-1.075,1.056-1.686,2.083-1.774c0.929-0.079,1.456,0.42,1.393,1.362c-0.049,0.737,0.678,1.033,1.303,0.918
							c0.732-0.135,1.359-0.77,1.461-1.504c0.485-3.511-3.342-4.035-5.82-2.829c-3.174,1.545-4.757,5.815-3.451,9.084
							c0.949,2.376,3.167,4.21,5.703,4.599c2.397,0.368,4.811-0.441,6.786-1.784c2.423-1.648,4.368-4.3,5.017-7.174
							c1.429-2.316,2.69-4.736,4.025-7.109c0.009-0.005,0.013-0.006,0.024-0.012c0.508-0.257,1.02-0.499,1.55-0.708
							c0.126-0.05,0.253-0.097,0.381-0.142c0.059-0.021,0.117-0.041,0.176-0.061c0.285-0.078,0.566-0.163,0.854-0.227
							c0.253-0.057,0.508-0.105,0.764-0.142c0.112-0.016,0.224-0.028,0.335-0.043c-0.397,0.053,0.147-0.007,0.243-0.011
							c0.238-0.01,0.477-0.009,0.715,0.005c0.115,0.007,0.229,0.021,0.344,0.03c0,0,0.001,0,0.001,0
							c-0.017-0.003-0.03-0.006-0.051-0.01c0.018,0.003,0.035,0.007,0.053,0.01c0.071,0.006,0.203,0.036,0.061,0.011
							c0.035,0.006,0.069,0.011,0.104,0.019c0.209,0.049,0.415,0.099,0.617,0.173c0.026,0.01,0.118,0.049,0.18,0.075
							c0.069,0.038,0.195,0.104,0.224,0.122c0.152,0.093,0.287,0.205,0.422,0.319c0.035,0.034,0.075,0.073,0.095,0.1
							c0.075,0.099,0.151,0.194,0.218,0.3c0.053,0.085,0.098,0.173,0.145,0.262c0.01,0.027,0.023,0.064,0.038,0.114
							c0.074,0.255,0.135,0.504,0.174,0.767c0.001,0.007,0.001,0.005,0.002,0.011c0.004,0.057,0.007,0.114,0.008,0.172
							c0.002,0.141,0.002,0.281-0.005,0.422c-0.016,0.334-0.059,0.665-0.119,0.994c-0.008,0.027-0.069,0.311-0.085,0.368
							c-0.04,0.149-0.089,0.29-0.144,0.434c-0.002,0.004-0.002,0.005-0.003,0.009c-0.004,0.006-0.006,0.008-0.012,0.018
							c-0.047,0.081-0.093,0.163-0.142,0.243c-0.042,0.067-0.224,0.322-0.241,0.355c-0.232,0.283-0.488,0.54-0.752,0.793
							c-0.017,0.016-0.024,0.023-0.036,0.035c-0.008,0.006-0.014,0.01-0.03,0.023c-0.089,0.072-0.178,0.142-0.269,0.211
							c-0.182,0.137-0.37,0.267-0.563,0.388c-0.048,0.03-0.097,0.059-0.145,0.088c-0.026,0.011-0.215,0.112-0.232,0.121
							c-0.158,0.077-0.319,0.148-0.483,0.212c0.012-0.005-0.128,0.042-0.201,0.068c-0.074,0.018-0.203,0.053-0.192,0.05
							c-0.08,0.018-0.159,0.033-0.24,0.048c-0.042,0.008-0.069,0.014-0.089,0.018c-0.018,0-0.033,0-0.062,0.001
							c-0.38,0.013-0.622-0.022-0.857-0.154c-0.359-0.203-0.559-0.427-0.757-0.817c-0.104-0.205-0.162-0.555-0.14-0.847
							c0.02-0.265,0.033-0.296,0.088-0.468c0.031-0.095,0.062-0.19,0.098-0.284c0.009-0.023,0.073-0.16,0.089-0.198
							c0.089-0.169,0.19-0.333,0.3-0.489c0.013-0.018,0.019-0.027,0.028-0.041c0.006-0.006,0.017-0.017,0.034-0.037
							c0.079-0.089,0.161-0.174,0.244-0.259c0.017-0.017,0.048-0.043,0.078-0.068c0.056-0.042,0.113-0.081,0.171-0.12
							c-0.052,0.048,0.211-0.076,0.226-0.101c0.019-0.004,0.039-0.007,0.057-0.011c0.052,0.005,0.173,0.005,0.164-0.005
							c0.07,0.021,0.237,0.084,0.283,0.113c0.168,0.107,0.309,0.25,0.474,0.361c0.299,0.201,0.552,0.227,0.906,0.263
							c0.381,0.038,0.794-0.302,0.915-0.641c0.229-0.64,0.09-1.178-0.431-1.613c-0.402-0.335-0.909-0.526-1.43-0.56
							c-1.101-0.072-2.129,0.502-2.92,1.219c-1.491,1.354-2.486,3.783-1.273,5.619c1.278,1.933,3.879,1.598,5.681,0.682
							c1.706-0.866,3.537-2.333,4.235-4.203c1.574,1.559,3.755,2.503,5.997,2.751c3.527,0.391,7.103-1.018,9.729-3.326
							c0.666-0.585,1.261-1.246,1.777-1.96c1.06-0.337,2.098-0.965,2.86-1.501c1.651-1.16,3.094-2.597,4.518-4.017
							c1.432-1.429,2.843-2.948,4.505-4.115c1.847-1.297,3.929-2.31,6.06-3.042c3.661-1.257,8.21-1.682,11.054,1.422
							c1.642,1.792,3.437,5.45,0.73,6.919c-1.404,0.762-3.583,0.017-4.714-1.125c-0.587-0.592-0.981-1.404-0.652-2.223
							c0.323-0.803,0.758-0.711,1.511-0.493c0.853,0.247,2.51-0.911,1.783-1.858c-1.824-2.376-5.184,0.081-6.097,2.091
							c-1.038,2.286,0.178,4.558,2.246,5.729c2.19,1.239,4.753,1.331,6.948,0.081c1.658-0.945,2.978-2.51,3.255-4.403
							c1.08,0.831,2.478,1.215,3.814,1.388c3.503,0.454,7.141-1.895,9.187-4.57c1.004-1.313,1.806-3.064,1.397-4.747
							c-0.002-0.007-0.005-0.014-0.007-0.021c0.44-0.016,0.88-0.025,1.32-0.045c1.076-0.049,2.183-0.717,2.537-1.778
							C177.376,361.269,176.766,360.452,175.754,360.404z M74.463,376.829c-1.733,1.311-3.129,3.096-4.216,5.032
							c-0.004-0.646-0.007-1.291-0.007-1.936v-5.348c1.289,0.647,2.806,0.987,4.153,1.009c0.748,0.012,1.499-0.052,2.239-0.183
							C75.875,375.833,75.147,376.311,74.463,376.829z M80.797,370.293c-0.151,0.176-0.307,0.346-0.473,0.508
							c-0.057,0.056-0.116,0.109-0.174,0.162c-0.022,0.017-0.056,0.044-0.113,0.09c-0.198,0.139-0.397,0.278-0.595,0.417
							c-0.1,0.059-0.151,0.091-0.157,0.096c-0.076,0.04-0.151,0.081-0.228,0.118c-0.422,0.209-0.93,0.412-1.237,0.504
							c-1.778,0.532-3.382,0.506-5.218-0.135c-0.952-0.333-1.734-0.908-2.364-1.639v-0.394c0-1.651-0.024-3.364-0.293-4.994
							c-0.018-0.109-0.035-0.221-0.052-0.332c2.552,0.199,5.121,0.13,7.686,0.138l4.492,0.014c-0.084,0.736,0.009,1.487-0.059,2.265
							c-0.042,0.485-0.089,0.781-0.218,1.223c-0.066,0.225-0.142,0.447-0.229,0.665c-0.034,0.086-0.072,0.171-0.109,0.257
							c-0.011,0.021-0.033,0.062-0.071,0.137c-0.111,0.201-0.229,0.398-0.358,0.588c-0.056,0.083-0.115,0.163-0.174,0.244
							C80.837,370.245,80.822,370.264,80.797,370.293z M86.274,371.138c-0.075,0.944,0.045,1.845,0.313,2.7
							c-0.327-0.102-0.657-0.195-0.992-0.259c-1.542-0.291-3.088-0.221-4.588,0.107c1.556-1.017,2.843-2.417,3.619-4.149
							c0.438-0.978,0.678-2.069,0.741-3.137c0.026-0.444,0.05-1-0.002-1.544l2.35,0.007c0.821,0.002,1.643-0.002,2.464,0
							C87.953,366.043,86.473,368.638,86.274,371.138z M89.439,373.492c-0.904-1.956-0.775-4.757,0.895-6.29
							c0.608-0.558,1.659-0.926,2.588-0.587c0.979,0.358,1.586,1.315,1.766,2.308c0.191,1.05-0.188,2.005-0.881,2.775
							c-0.154,0.171-0.129,0.08-0.219,0.16c-0.004,0.005-0.007,0.009-0.011,0.015c-0.001,0-0.003,0-0.004-0.001
							c-0.003,0.003-0.006,0.005-0.008,0.008c0.003,0.001,0.004,0.001,0.006,0.002l0,0c-0.003-0.001-0.003-0.001-0.006-0.002
							c-0.015,0.015-0.023,0.02-0.045,0.044c0.019-0.022,0.028-0.031,0.04-0.046c-0.048-0.017-0.123-0.044-0.124-0.044
							c-0.012-0.005-0.017-0.007-0.026-0.011c-0.005-0.003-0.006-0.004-0.013-0.008c-0.091-0.054-0.176-0.114-0.258-0.181
							c-0.009-0.007-0.026-0.023-0.043-0.038c-0.056-0.059-0.112-0.122-0.159-0.188c-0.108-0.151-0.209-0.305-0.293-0.471
							c-0.001-0.017-0.111-0.29-0.131-0.359c-0.018-0.062-0.024-0.128-0.039-0.192c0.029-0.005,0.057-0.01,0.086-0.014
							c0.584-0.085,1.229-0.811,0.883-1.397c-0.712-1.205-2.533-0.451-3.107,0.504c-0.533,0.885-0.325,1.981,0.107,2.858
							c0.444,0.901,1.271,1.647,2.313,1.701c1.521,0.08,2.746-1.106,3.519-2.286c1.482-2.264,0.999-5.517-1.146-6.891
							c3.325-0.001,6.649,0.004,9.973-0.002c-1.1,0.587-2.132,1.275-3.063,2.063c-3.418,2.89-5.653,6.587-7.446,10.544
							c-0.421,0.421-0.791,0.888-1.086,1.405c-0.059-0.151-0.129-0.301-0.226-0.453c-0.367-0.578-0.833-1.066-1.296-1.568
							C91.04,375.826,90.03,374.772,89.439,373.492z M123.28,375.029c-0.31,1.141-0.924,2.247-1.641,3.041
							c-0.813,0.9-1.711,1.552-2.795,2.039c-2.126,0.955-4.765,1.084-6.974-0.016c-2.697-1.343-4.591-4.544-3.185-7.495
							c0.521-1.093,1.688-2.302,3.006-2.078c1.617,0.276,2.303,1.913,2.055,3.384c-0.113,0.665,0.603,0.99,1.14,0.944
							c0.653-0.055,1.399-0.562,1.585-1.216c0.543-1.915,0.095-3.892-1.563-5.11c-1.577-1.158-3.724-1.091-5.399-0.197
							c-2.301,1.229-3.964,3.481-4.417,5.976c-0.227-0.08-0.458-0.147-0.693-0.193c-1.706-0.33-3.509-0.064-5.186,0.54
							c0.519-0.826,1.055-1.642,1.632-2.432c1.633-2.234,3.614-4.073,6.033-5.178c2.423-1.107,5.014-1.436,7.628-1.29
							c2.471,0.138,5.117,0.785,6.997,2.485C123.357,369.912,123.922,372.662,123.28,375.029z M124.645,366.261
							c-0.485-0.522-1.031-0.995-1.643-1.407c0.973,0.001,1.946-0.001,2.919-0.001C125.431,365.258,124.99,365.729,124.645,366.261z
							 M129.009,373.565c-0.901,0.95-1.85,1.827-2.897,2.614c0.61-1.488,0.907-3.1,0.782-4.738c-0.031-0.41-0.096-0.805-0.177-1.19
							c0.544,0.715,1.479,1.211,2.286,1.422c0.553,0.145,1.117,0.161,1.667,0.086C130.122,372.364,129.573,372.97,129.009,373.565z
							 M131.836,368.837c-0.003,0.008-0.002,0.007-0.005,0.014c-0.033,0.058-0.068,0.115-0.101,0.173
							c-0.013,0.012-0.092,0.125-0.109,0.143c-0.008,0.008-0.041,0.042-0.072,0.073c-0.046,0.031-0.092,0.063-0.137,0.095
							c-0.006,0.002-0.006,0.002-0.013,0.004c-0.019,0.007-0.073,0.034-0.119,0.054c-0.06,0.013-0.119,0.029-0.18,0.041
							c-0.013,0.003-0.15,0.012-0.182,0.018c-0.01,0-0.023-0.001-0.028-0.001c-0.085-0.004-0.169-0.007-0.254-0.011
							c-0.005,0-0.013-0.002-0.019-0.003c-0.101-0.022-0.201-0.044-0.3-0.074c-0.07-0.021-0.375-0.132-0.266-0.085
							c-0.141-0.061-0.277-0.141-0.409-0.219c-0.129-0.077-0.255-0.16-0.375-0.252c-0.054-0.041-0.105-0.086-0.157-0.129
							c-0.005-0.005-0.007-0.007-0.011-0.013c-0.039-0.047-0.077-0.108-0.116-0.167c-0.035,0.012-0.074,0.013-0.109-0.002
							c0.012-0.002,0.023-0.004,0.034-0.007c0.01,0.016,0.018,0.019,0.018-0.003c0.019-0.002,0.03-0.003,0.043-0.004
							c-0.001-0.001-0.002-0.003-0.003-0.004c0.052-0.013,0.064-0.01,0.053,0.001c0.031,0.002,0.062,0.003,0.093,0.003
							c0.069,0.026,0.213,0.073,0.264,0.073c0.035,0.021,0.071,0.041,0.105,0.063c0.095,0.064,0.177,0.14,0.266,0.212
							c0.204,0.166,0.437,0.281,0.642,0.446c0.46,0.371,1.138-0.003,1.46-0.481C131.845,368.81,131.841,368.824,131.836,368.837z
							 M131.842,367.17c-0.158-0.263-0.412-0.484-0.679-0.638c-0.607-0.35-1.285-0.429-1.97-0.344
							c-1.31,0.163-2.797,1.201-2.926,2.612c-0.135-0.329-0.287-0.647-0.46-0.953c0.013-0.03,0.023-0.056,0.033-0.08
							c0.026-0.049,0.077-0.149,0.089-0.169c0.052-0.09,0.107-0.178,0.166-0.264c0.012-0.018,0.021-0.037,0.031-0.057
							c0.036-0.056,0.098-0.115,0.137-0.159c0.134-0.152,0.283-0.286,0.428-0.428c0.004-0.004,0.004-0.004,0.007-0.007
							c0.067-0.057,0.134-0.115,0.2-0.173c0.163-0.12,0.32-0.246,0.49-0.358c0.072-0.047,0.146-0.091,0.219-0.136
							c0.002-0.001,0.003-0.001,0.005-0.002c0.175-0.087,0.35-0.173,0.53-0.248c0.09-0.037,0.181-0.072,0.272-0.105
							c0.008-0.003,0.017-0.006,0.026-0.009c0.179-0.045,0.356-0.097,0.537-0.132c0.082-0.016,0.164-0.03,0.247-0.042
							c0.02-0.003,0.04-0.006,0.061-0.008c0.174-0.005,0.346-0.019,0.521-0.013c0.078,0.003,0.157,0.007,0.236,0.013
							c0.061,0.005,0.363,0.004,0.138,0.009c-0.208,0.005,0.061,0.014,0.13,0.029c0.092,0.021,0.183,0.045,0.272,0.074
							c0.071,0.023,0.14,0.05,0.21,0.075c0.003,0.001,0.003,0.001,0.005,0.002c0.145,0.088,0.291,0.167,0.425,0.273
							c0.005,0.004,0.075,0.066,0.129,0.112c0.018,0.02,0.035,0.039,0.052,0.059c0.121,0.144,0.219,0.3,0.313,0.462
							c0.011,0.02,0.022,0.04,0.032,0.062c0.027,0.081,0.061,0.159,0.086,0.24c0.059,0.187,0.1,0.38,0.131,0.573
							C131.934,367.347,131.895,367.257,131.842,367.17z M135.062,367.492c-0.165,0.126-0.322,0.26-0.481,0.39
							c0.121-0.849,0.027-1.733-0.308-2.509c-0.083-0.192-0.188-0.364-0.295-0.534c1.804-0.006,3.609-0.01,5.413-0.023
							C137.827,365.587,136.36,366.499,135.062,367.492z M157.713,367.387c-0.63-1.067-1.476-2.031-2.457-2.807
							c1.476-0.036,2.952-0.074,4.428-0.112C158.833,365.321,158.126,366.302,157.713,367.387z M170.321,365.954
							c-0.007,0.097-0.078,0.43-0.048,0.339c-0.058,0.209-0.12,0.415-0.203,0.618c0,0.009-0.022,0.069-0.045,0.108
							c-0.002,0.004-0.004,0.007-0.006,0.011c-0.013,0.029-0.027,0.058-0.038,0.087c0.011-0.027,0.018-0.046,0.027-0.067
							c-0.087,0.148-0.164,0.3-0.255,0.446c-0.084,0.134-0.174,0.262-0.264,0.392c-0.02,0.029-0.047,0.07-0.075,0.107
							c-0.013,0.014-0.026,0.027-0.035,0.038c-0.217,0.256-0.442,0.504-0.683,0.738c-0.042,0.041-0.161,0.127-0.256,0.209
							c0.024-0.004,0.022,0.022-0.074,0.099c-0.014,0.011-0.027,0.022-0.041,0.033c-0.001,0.003-0.006,0.007-0.006,0.009
							c0.001-0.003,0.003-0.004,0.004-0.007c-0.053,0.043-0.107,0.087-0.161,0.129c-0.276,0.216-0.562,0.418-0.857,0.606
							c-0.063,0.04-0.127,0.079-0.191,0.118c0.006,0,0.014-0.005,0.019-0.004c-0.005-0.001-0.016,0.005-0.022,0.006
							c-0.025,0.015-0.05,0.03-0.075,0.046c-0.129,0.081-0.081,0.019-0.007-0.022c-0.12,0.057-0.289,0.178-0.36,0.212
							c-0.322,0.157-0.662,0.266-0.987,0.412c-0.055,0.016-0.109,0.032-0.164,0.047c-0.16,0.043-0.321,0.082-0.483,0.114
							c-0.152,0.03-0.306,0.049-0.458,0.074c-0.107-0.006-0.219,0.012-0.327,0.013c-0.141,0.001-0.282-0.003-0.422-0.013
							c-0.031-0.002-0.063-0.005-0.094-0.009c-0.031-0.001-0.081-0.005-0.112-0.01c0,0-0.001,0-0.001,0
							c-0.008-0.001-0.017-0.002-0.025-0.002c0.008,0,0.012,0.001,0.019,0.001c-0.412-0.077-0.82-0.16-1.222-0.28
							c-0.161-0.048-0.321-0.101-0.478-0.16c-0.048-0.018-0.21-0.085-0.282-0.114c-0.064-0.034-0.242-0.124-0.284-0.149
							c-0.126-0.073-0.248-0.151-0.365-0.236c-0.095-0.069-0.18-0.15-0.273-0.22c-0.028-0.03-0.056-0.059-0.083-0.09
							c-0.141-0.166-0.232-0.35-0.351-0.53c0.198,0.301,0.028,0.058-0.011-0.061c-0.031-0.096-0.056-0.193-0.075-0.292
							c-0.01-0.054-0.011-0.137-0.009-0.188c-0.001,0.028-0.003,0.068-0.008,0.137c0.007-0.112-0.005-0.226,0.002-0.338
							c0.006-0.094,0.022-0.188,0.029-0.281c0.001-0.014,0.001-0.018,0.001-0.029c0.003-0.011,0.005-0.014,0.009-0.028
							c0.067-0.23,0.14-0.454,0.233-0.675c0.015-0.037,0.084-0.179,0.112-0.241c0.027-0.049,0.054-0.1,0.065-0.12
							c0.137-0.244,0.288-0.479,0.451-0.706c0.028-0.038,0.057-0.076,0.084-0.115c0.071-0.084,0.139-0.17,0.211-0.253
							c0.19-0.219,0.389-0.429,0.596-0.632c0.1-0.098,0.202-0.194,0.306-0.288c0.032-0.029,0.064-0.057,0.097-0.086
							c0.002-0.001,0.002-0.001,0.003-0.003c0.204-0.157,0.404-0.317,0.611-0.469c0.167-0.004,0.333-0.009,0.5-0.013
							c1.322-0.033,2.646-0.098,3.969-0.173c0.622-0.004,1.243-0.018,1.865-0.027c0.042,0.027,0.086,0.049,0.126,0.078
							c0.112,0.079,0.212,0.174,0.321,0.254c0.004,0.003,0.005,0.003,0.008,0.005c0.003,0.004,0.003,0.005,0.006,0.01
							c0.032,0.043,0.074,0.083,0.107,0.125c0.083,0.103,0.16,0.211,0.228,0.325c0.025,0.041,0.049,0.109,0.081,0.15
							c0.004,0.013,0.006,0.023,0.011,0.041c0.029,0.109,0.066,0.214,0.089,0.325c0.034,0.162,0.02,0.368,0.025,0.085
							C170.322,365.699,170.33,365.826,170.321,365.954z"/>
					</g>
				</g>
			</g>
		</g>
		<g>
			<rect x="130.444" y="413.434" style="fill:#3A4E59;" width="9.423" height="2.225"/>
			<path style="fill:#576F7D;" d="M132.514,377.855c0,0-1.948-1.32-1.376-3.432c0.572-2.112,3.103-5.28,4.786-4.488
				c1.683,0.792,3.389,3.872,2.932,6.688S132.514,377.855,132.514,377.855z"/>
			<path style="opacity:0.6;fill:#344751;" d="M135.923,369.935c-1.683-0.792-4.214,2.376-4.785,4.488
				c-0.572,2.112,1.376,3.432,1.376,3.432s5.884,1.584,6.342-1.232C139.313,373.807,137.606,370.727,135.923,369.935z
				 M134.867,375.091c-0.917,0.413-2.484,0.536-2.876-0.654c-0.21-0.638,0.148-1.311,0.533-1.8c0.15-0.191,0.324-0.374,0.508-0.546
				c0.138-0.307,0.325-0.59,0.584-0.804c0.36-0.297,0.815-0.415,1.274-0.321c0.802,0.165,1.398,0.917,1.494,1.71
				C136.508,373.698,135.77,374.684,134.867,375.091z"/>
			<polygon style="fill:#344751;" points="121.691,383.941 130.139,412.921 140.436,412.921 147.564,383.941 			"/>
			<polygon style="fill:#FDC469;" points="122.571,383.941 131.486,412.921 139.028,412.921 146.244,383.941 			"/>
			<path style="fill:#FDC469;" d="M132.762,410.831c-0.526-2.47-0.979-4.955-1.493-7.427c-0.532-2.56-1.113-5.114-1.707-7.661
				c-0.919-3.939-1.911-7.861-2.822-11.802h-4.17l8.915,28.98h1.743C133.066,412.226,132.911,411.529,132.762,410.831z"/>
			<path style="fill:#FDC469;" d="M141.913,383.941c-0.451,1.705-0.822,3.432-1.161,5.163c-0.466,2.379-0.876,4.769-1.363,7.144
				c-0.498,2.426-1.039,4.845-1.639,7.248c-0.303,1.215-0.629,2.424-0.927,3.64c-0.284,1.162-0.493,2.341-0.686,3.52
				c-0.124,0.754-0.242,1.509-0.369,2.264h3.26l7.216-28.98H141.913z"/>
			<polygon style="fill:#344751;" points="124.991,383.135 121.163,382.079 130.271,376.271 140.568,376.271 148.884,383.135 			"/>
			<path style="fill:#344751;" d="M133.092,376.271h-2.072c-0.329,0.35-0.652,0.707-0.985,1.054c-1.819,1.9-3.679,3.764-5.466,5.694
				l0.422,0.116h4.51C130.699,380.848,131.905,378.564,133.092,376.271z"/>
			<path style="opacity:0.6;fill:#344751;" d="M136.37,383.135h12.514l-8.316-6.864h-4.973
				C135.877,378.556,136.087,380.851,136.37,383.135z"/>
			
				<rect x="129.439" y="382.849" transform="matrix(0.9812 -0.1932 0.1932 0.9812 -74.4368 32.615)" style="fill:#576F7D;" width="1.194" height="30.357"/>
			
				<rect x="124.13" y="397.431" transform="matrix(0.1934 -0.9811 0.9811 0.1934 -278.1451 457.7383)" style="fill:#576F7D;" width="30.357" height="1.194"/>
			<rect x="129.083" y="412.044" style="fill:#576F7D;" width="11.797" height="2.779"/>
			<rect x="129.083" y="412.044" style="fill:#576F7D;" width="11.797" height="2.779"/>
			<rect x="120.635" y="382.079" style="fill:#5E7C9E;" width="28.777" height="1.056"/>
			<polygon style="opacity:0.6;fill:#344751;" points="123.226,380.764 121.163,382.079 124.991,383.135 148.884,383.135 
				146.011,380.764 			"/>
			<rect x="120.635" y="382.079" style="fill:#576F7D;" width="28.777" height="3.696"/>
			<rect x="120.635" y="382.079" style="fill:#344751;" width="28.777" height="0.94"/>
		</g>
	</g>
</g>
</svg>
