<?xml version="1.0" encoding="utf-8"?>
<!-- Generator: Adobe Illustrator 27.5.0, SVG Export Plug-In . SVG Version: 6.00 Build 0)  -->
<svg version="1.1" id="Layer_1" xmlns="http://www.w3.org/2000/svg" xmlns:xlink="http://www.w3.org/1999/xlink" x="0px" y="0px"
     viewBox="0 0 187.857 472.676" style="enable-background:new 0 0 187.857 472.676;" xml:space="preserve">
<g>
	<g>
		<ellipse style="fill:#2A3B44;" cx="31.287" cy="459.647" rx="19.859" ry="5.94"/>
        <path style="fill:#465B67;" d="M49.125,458.107c0,2.431-7.986,4.401-17.838,4.401c-9.851,0-17.838-1.97-17.838-4.401
			c0-2.43,7.986-4.401,17.838-4.401C41.139,453.707,49.125,455.677,49.125,458.107z"/>
        <g>
			<rect x="21.628" y="90.743" style="fill:#3A4E59;" width="18.069" height="4.266"/>
            <rect x="27.06" y="90.743" style="fill:#3A4E59;" width="6.538" height="275.411"/>
            <rect x="31.102" y="90.743" style="fill:#3A4E59;" width="2.496" height="275.411"/>
            <path style="fill:#576F7D;" d="M25.597,22.517c0,0-3.736-2.531-2.639-6.581c1.097-4.05,5.95-10.125,9.177-8.606
				c3.227,1.519,6.5,7.425,5.623,12.825C36.88,25.554,25.597,22.517,25.597,22.517z"/>
            <path style="opacity:0.6;fill:#344751;" d="M32.135,7.329c-3.227-1.519-8.08,4.556-9.177,8.606
				c-1.097,4.05,2.639,6.581,2.639,6.581s11.284,3.038,12.16-2.363S35.362,8.847,32.135,7.329z M30.109,17.215
				c-1.758,0.792-4.763,1.029-5.514-1.255c-0.402-1.223,0.284-2.514,1.021-3.452c0.288-0.366,0.621-0.716,0.974-1.047
				c0.265-0.589,0.623-1.132,1.12-1.542c0.691-0.57,1.564-0.796,2.443-0.615c1.538,0.316,2.682,1.759,2.865,3.279
				C33.256,14.544,31.841,16.435,30.109,17.215z"/>
            <polygon style="fill:#344751;" points="4.843,34.186 21.043,89.758 40.788,89.758 54.457,34.186 			"/>
            <polygon id="lampe1" style="fill:#FDC469; filter:url(#glow); transition: fill 0.5s ease, opacity 0.5s ease;" points="6.53,34.186 23.626,89.758 38.088,89.758 51.925,34.186"/>
            <path id="lampe1" style="fill:#FDC469; filter:url(#glow); transition: fill 0.5s ease, opacity 0.5s ease;" d="M26.073,85.751c-1.009-4.737-1.878-9.501-2.863-14.243c-1.02-4.91-2.133-9.807-3.273-14.691
				c-1.763-7.553-3.665-15.075-5.411-22.632H6.53l17.096,55.572h3.342C26.655,88.425,26.358,87.089,26.073,85.751z"/>
            <path id="lampe1"  style="fill:#FDC469; filter:url(#glow); transition: fill 0.5s ease, opacity 0.5s ease;" d="M43.62,34.186c-0.865,3.27-1.576,6.582-2.227,9.901c-0.894,4.562-1.68,9.145-2.614,13.699
				c-0.954,4.653-1.992,9.291-3.143,13.899c-0.581,2.329-1.207,4.649-1.777,6.98c-0.545,2.228-0.945,4.488-1.316,6.75
				c-0.237,1.445-0.465,2.895-0.707,4.341h6.251l13.838-55.572H43.62z"/>
            <polygon style="fill:#344751;" points="11.171,32.642 3.83,30.617 21.296,19.479 41.041,19.479 56.988,32.642 			"/>
            <path style="fill:#344751;" d="M26.706,19.479h-3.973c-0.631,0.672-1.251,1.355-1.888,2.021
				c-3.489,3.643-7.054,7.218-10.482,10.918l0.809,0.223h8.649C22.118,28.256,24.429,23.876,26.706,19.479z"/>
            <path style="opacity:0.6;fill:#344751;" d="M32.991,32.642h23.997L41.041,19.479h-9.536
				C32.045,23.861,32.449,28.26,32.991,32.642z"/>

            <rect x="19.7" y="32.093" transform="matrix(0.9812 -0.1932 0.1932 0.9812 -11.4292 5.179)" style="fill:#576F7D;" width="2.289" height="58.213"/>

            <rect x="9.521" y="60.055" transform="matrix(0.1934 -0.9811 0.9811 0.1934 -28.8869 87.263)" style="fill:#576F7D;" width="58.213" height="2.289"/>
            <rect x="19.018" y="88.078" style="fill:#576F7D;" width="22.622" height="5.33"/>
            <rect x="19.018" y="88.078" style="fill:#576F7D;" width="22.622" height="5.33"/>
            <path style="fill:#576F7D;" d="M30.915,461.447v-97.456c0,0-2.278-4.809-5.569-3.544c-3.291,1.266-7.594,5.316-7.341,12.404
				c0.253,7.088,0,76.699,0,76.699s-0.253,7.594,4.303,9.113C26.865,460.181,30.915,461.447,30.915,461.447z"/>
            <path style="fill:#576F7D;" d="M18.102,412.951c0.351-5.03,0.621-10.064,0.802-15.107c0.223-6.235,0.483-12.459,0.91-18.684
				c0.28-4.084,0.593-8.227,1.7-12.186c0.6-2.148,1.517-4.462,3.028-6.164c-3.144,1.575-6.769,5.518-6.536,12.041
				C18.13,376.336,18.132,394.94,18.102,412.951z"/>
            <path style="fill:#3A4E59;" d="M30.915,461.447v-97.456c0,0,2.278-4.809,5.569-3.544c3.291,1.266,7.594,5.316,7.341,12.404
				c-0.253,7.088,0,76.699,0,76.699s0.253,7.594-4.303,9.113S30.915,461.447,30.915,461.447z"/>
            <rect x="2.818" y="30.617" style="fill:#5E7C9E;" width="55.183" height="2.025"/>
            <polygon style="opacity:0.6;fill:#344751;" points="7.787,28.094 3.83,30.617 11.171,32.642 56.988,32.642 51.478,28.094 			"/>
            <rect x="2.818" y="30.617" style="fill:#576F7D;" width="55.183" height="7.088"/>
            <rect x="2.818" y="30.617" style="fill:#344751;" width="55.183" height="1.804"/>
		</g>
	</g>
</g>
</svg>
